<svg width="1440" height="331" viewBox="0 0 1440 331" fill="none" xmlns="http://www.w3.org/2000/svg">
<g clip-path="url(#clip0_188_822)">
<path d="M1367.27 41.1545C1327.96 43.5062 1297.35 61.7318 1292.29 83.8768C1276.01 71.7265 1250.17 64.6714 1221.53 66.4352C1193.45 68.003 1169.86 77.8016 1156.94 91.3238C1154.13 80.7412 1141.5 71.5305 1122.96 68.003C1118.47 67.0231 1113.98 66.6311 1109.2 66.6311C1113.14 46.6418 1092.64 27.2404 1058.66 20.5773C1026.65 14.3061 992.387 21.3611 973.853 36.6471C948.861 33.5115 923.307 41.7424 915.164 56.0485C915.164 56.2445 914.883 56.4405 914.883 56.6365C911.794 55.6566 908.424 54.6767 904.774 54.0888C875.008 48.4056 842.995 57.6163 833.167 74.862C831.763 77.4097 830.92 79.7614 830.359 82.309C816.037 83.6809 802.839 87.7963 793.011 94.2635C781.498 91.9118 769.142 91.9118 757.909 94.0675C755.944 81.9171 744.431 70.3546 724.774 63.4955C692.2 52.1291 649.797 58.2043 630.421 77.2137C629.579 77.9976 628.736 78.9775 627.894 79.7614C626.771 79.3694 625.647 78.7815 624.524 78.3896C615.819 75.45 606.552 73.6862 597.286 73.2943C593.635 49.5814 559.376 30.9639 517.816 30.9639C514.446 30.9639 510.796 31.1598 507.426 31.3558C500.686 17.0497 481.31 5.29128 454.914 1.56778C421.778 -3.33157 388.081 6.07518 372.917 22.9289C367.301 20.9692 361.123 19.4014 354.384 18.4215C317.878 13.1302 281.092 25.6726 271.264 46.6418C253.573 35.4713 227.176 30.3759 201.622 32.9236C200.78 28.4162 198.534 23.9088 194.602 19.5974C178.034 1.56778 140.125 -5.09534 109.516 4.50739C103.058 6.46712 97.7223 9.01479 92.9485 11.9544C73.8533 0.391933 43.5257 -2.93962 18.2527 5.09531C10.9516 7.25102 5.0546 10.1906 0 13.5222V287.494C12.3557 287.494 25.273 285.926 37.0671 282.202C47.7379 278.871 56.7239 274.168 63.4633 268.68C85.6474 286.906 128.05 293.177 162.871 282.398C182.808 276.127 196.006 265.545 201.061 253.786C208.362 254.374 215.944 254.178 223.245 252.806C228.861 254.962 235.039 256.53 242.059 257.51C251.045 258.49 260.031 258.098 268.175 256.53C275.476 270.248 294.29 281.615 320.125 285.338C349.329 289.649 379.095 282.986 395.944 269.66C400.718 271.032 405.491 272.208 410.827 272.796C430.203 275.539 449.579 273.58 465.304 267.896C466.427 268.484 467.832 268.876 469.236 269.464C477.66 272.404 486.646 273.776 495.913 273.58C490.858 282.398 496.755 292.393 511.076 297.488C514.165 298.664 517.535 299.448 521.186 299.84C524.836 308.855 534.665 317.086 549.548 322.181H549.828C552.637 324.141 556.287 325.905 560.218 327.276C580.718 334.528 607.114 330.804 620.312 319.438C621.997 318.654 623.682 317.87 625.086 316.89C627.052 317.87 629.017 318.85 631.264 319.634C645.866 324.729 664.399 322.965 675.351 315.714C679.844 319.242 685.741 322.377 692.761 324.729C721.966 334.919 760.156 329.432 777.847 312.382C783.463 306.895 786.271 300.82 786.552 294.745C804.524 295.333 822.215 290.237 832.324 280.635C834.29 278.675 835.694 276.715 836.818 274.755C845.803 283.182 859.563 289.845 876.973 293.373C907.582 299.252 940.156 293.177 959.251 279.263C966.271 284.554 976.1 288.866 987.894 291.217C1001.09 293.765 1014.57 293.569 1026.65 291.021C1034.79 296.901 1047.71 300.428 1062.03 299.644C1067.64 299.252 1072.7 298.272 1077.47 296.901C1077.47 297.096 1077.47 297.488 1077.47 297.88C1079.16 312.578 1101.06 323.357 1126.33 321.985C1146.55 320.809 1162.84 311.991 1167.33 301.016C1176.04 315.518 1200.75 325.121 1228.55 323.553C1252.98 322.181 1272.92 312.186 1281.06 299.448C1290.61 304.152 1302.96 306.699 1316.44 305.915C1334.98 304.739 1350.14 297.88 1357.16 288.474C1368.11 300.232 1390.02 307.483 1414.73 305.915C1423.99 305.327 1432.98 303.564 1440.56 300.82V59.968C1423.99 47.0337 1397.04 39.3908 1367.27 41.1545Z" fill="white"/>
</g>
<defs>
<clipPath id="clip0_188_822">
<rect width="1440" height="331" fill="white"/>
</clipPath>
</defs>
</svg>
