<svg width="22" height="24" viewBox="0 0 22 24" fill="none" xmlns="http://www.w3.org/2000/svg">
<path d="M21.9501 11.959C21.9501 10.5233 21.9556 9.08198 21.9501 7.64624C21.9445 6.38301 21.3919 5.42585 20.2868 4.79145C17.7807 3.35015 15.2746 1.89771 12.763 0.461972C11.6913 -0.150166 10.5974 -0.150166 9.52572 0.461972C7.03639 1.88658 4.55822 3.32789 2.06888 4.74693C0.896777 5.41472 0.333048 6.4164 0.333048 7.75754C0.33863 10.5567 0.33863 13.3558 0.333048 16.1605C0.327467 17.5183 0.896776 18.52 2.08005 19.1934C4.5638 20.6069 7.03081 22.0426 9.50898 23.4616C10.5918 24.0793 11.6858 24.0793 12.7686 23.4616C15.2467 22.0426 17.7193 20.6069 20.1975 19.1934C21.3808 18.5145 21.9556 17.5128 21.9445 16.1605C21.9445 14.7582 21.9501 13.3558 21.9501 11.959ZM10.6085 19.9558C10.6085 20.5902 10.0281 20.9185 9.47549 20.6013C7.48849 19.4605 5.50149 18.3197 3.52007 17.1733C3.04006 16.8951 2.81122 16.461 2.81122 15.9045C2.81122 14.5857 2.81122 13.2723 2.81122 11.9535C2.81122 10.6624 2.8168 9.37692 2.80564 8.08587C2.80006 7.45703 3.06239 7.01184 3.60937 6.70021C5.54056 5.5928 7.46616 4.47982 9.39735 3.37241C10.056 2.99399 10.6141 3.31676 10.6141 4.07915C10.6141 6.17711 10.6141 8.26951 10.6141 10.3675C10.6141 10.8015 10.536 10.8739 10.1118 10.8794C9.53689 10.8794 8.95641 10.8794 8.38152 10.8794C8.05222 10.8794 7.95175 10.7793 7.95175 10.4454C7.95175 9.59951 7.95175 8.75922 7.95175 7.91335C7.95175 7.4459 7.70616 7.29565 7.28197 7.49599C6.77964 7.72971 6.27731 7.97457 5.7694 8.20829C5.44567 8.35854 5.29497 8.59783 5.29497 8.95399C5.30055 10.9685 5.30055 12.9774 5.29497 14.9919C5.29497 15.348 5.43451 15.5929 5.76381 15.7376C6.27731 15.9713 6.78522 16.2217 7.29872 16.461C7.70058 16.6502 7.94617 16.4888 7.94617 16.0381C7.94617 15.1922 7.94617 14.3519 7.94617 13.5061C7.94617 13.1666 8.04105 13.0664 8.37036 13.0664C8.97316 13.0609 9.58154 13.0609 10.1843 13.0664C10.5025 13.0664 10.6029 13.1666 10.6029 13.4838C10.6141 15.6319 10.6197 17.7966 10.6085 19.9558ZM14.789 10.8683C16.2012 10.8683 17.6188 10.8683 19.031 10.8683C19.4272 10.8683 19.4775 10.9128 19.4775 11.3191C19.4775 11.7531 19.4775 12.1928 19.4775 12.6268C19.4775 13.0052 19.4217 13.0553 19.0365 13.0553C17.63 13.0553 16.2291 13.0553 14.8225 13.0553C14.4151 13.0553 14.3369 13.1332 14.3369 13.545C14.3369 15.3981 14.3314 17.2568 14.3425 19.1099C14.3425 19.5384 14.1862 19.8333 13.8067 20.0337C13.4941 20.2006 13.1927 20.3843 12.8913 20.5568C12.2439 20.9296 11.6802 20.6124 11.6802 19.8723C11.6746 17.229 11.6802 14.5857 11.6802 11.9423C11.6802 9.32684 11.6802 6.71134 11.6802 4.09584C11.6802 3.88994 11.6858 3.68961 11.8141 3.51153C12.0541 3.1832 12.4504 3.11086 12.8523 3.34458C14.2867 4.16819 15.7156 4.99179 17.1444 5.81539C17.6747 6.12146 18.2049 6.42753 18.7351 6.7336C19.2263 7.01741 19.4775 7.44034 19.4775 8.01352C19.4775 8.38637 19.4775 8.75365 19.4775 9.1265C19.4775 9.54943 19.4272 9.58282 19.0533 9.40474C17.63 8.73139 16.2012 8.05804 14.7779 7.38469C14.443 7.22887 14.3369 7.29009 14.3369 7.65737C14.3369 8.57558 14.3369 9.49378 14.3369 10.412C14.3369 10.7848 14.4207 10.8683 14.789 10.8683Z" fill="#007AFF"/>
</svg>
