<svg width="16" height="20" viewBox="0 0 16 20" fill="none" xmlns="http://www.w3.org/2000/svg">
<path d="M9.66683 1.8913V5.33341C9.66683 5.80012 9.66683 6.03348 9.75766 6.21174C9.83755 6.36854 9.96504 6.49602 10.1218 6.57592C10.3001 6.66675 10.5335 6.66675 11.0002 6.66675H14.4423M9.66683 14.1667H4.66683M11.3335 10.8334H4.66683M14.6668 8.32354V14.3334C14.6668 15.7335 14.6668 16.4336 14.3943 16.9683C14.1547 17.4387 13.7722 17.8212 13.3018 18.0609C12.767 18.3334 12.067 18.3334 10.6668 18.3334H5.3335C3.93336 18.3334 3.2333 18.3334 2.69852 18.0609C2.22811 17.8212 1.84566 17.4387 1.60598 16.9683C1.3335 16.4336 1.3335 15.7335 1.3335 14.3334V5.66669C1.3335 4.26656 1.3335 3.56649 1.60598 3.03171C1.84566 2.56131 2.22811 2.17885 2.69852 1.93917C3.2333 1.66669 3.93336 1.66669 5.3335 1.66669H8.00998C8.62145 1.66669 8.92719 1.66669 9.21491 1.73576C9.47 1.797 9.71386 1.89801 9.93754 2.03509C10.1898 2.18969 10.406 2.40588 10.8384 2.83826L13.4953 5.49511C13.9276 5.92749 14.1438 6.14368 14.2984 6.39597C14.4355 6.61966 14.5365 6.86352 14.5978 7.11861C14.6668 7.40633 14.6668 7.71206 14.6668 8.32354Z" stroke="#1F1F1F" stroke-width="2" stroke-linecap="round" stroke-linejoin="round"/>
</svg>
