<svg width="39" height="40" viewBox="0 0 39 40" fill="none" xmlns="http://www.w3.org/2000/svg">
<g id="Group">
<path id="Vector" fill-rule="evenodd" clip-rule="evenodd" d="M31.2695 26.1332C31.2695 24.924 30.2849 23.9405 29.0762 23.9405H22.36C21.4599 22.239 21.684 21.4344 21.9412 20.5086C22.1175 19.8774 22.316 19.1624 22.191 18.1451C22.0624 17.109 21.515 16.1155 20.7949 15.614C20.3246 15.2851 19.7992 15.1768 19.2775 15.2998C18.7374 15.4273 17.8226 15.9273 17.7528 17.843C17.7013 19.2833 16.6138 21.4411 15.7504 22.2669C15.5226 22.4822 15.2948 22.6814 15.0707 22.8739C14.5123 23.3604 13.9317 23.8622 13.3696 24.6672C12.9765 24.2083 12.3924 23.9169 11.742 23.9169H9.5376C8.35822 23.9169 7.39932 24.877 7.39932 26.0571V37.0003C7.39932 37.5708 7.61971 38.1076 8.02392 38.5126C8.43174 38.9174 8.96814 39.1404 9.5376 39.1404H11.742C12.5944 39.1404 13.3329 38.64 13.6746 37.9177C14.7879 39.1382 16.5073 39.1394 17.9292 39.1394H26.3317C27.5442 39.1394 28.5252 38.1558 28.5252 36.9467C28.5252 36.3589 28.2938 35.8251 27.9152 35.4308C28.8007 35.1471 29.44 34.3183 29.44 33.3421C29.44 32.7649 29.2159 32.2391 28.8522 31.8471C29.767 31.5851 30.4431 30.739 30.4431 29.7378C30.4431 29.139 30.2006 28.5955 29.8111 28.1995C30.6598 27.8964 31.2697 27.0844 31.2697 26.1333L31.2695 26.1332ZM29.0762 27.5447H28.2495C28.0363 27.5447 27.86 27.7197 27.86 27.9357C27.86 28.1517 28.0363 28.3262 28.2495 28.3262C29.0284 28.3262 29.6639 28.9593 29.6639 29.7378C29.6639 30.5163 29.0283 31.1494 28.2495 31.1494H27.2464C27.0333 31.1494 26.857 31.3242 26.857 31.5399C26.857 31.7556 27.0333 31.9304 27.2464 31.9304C28.0253 31.9304 28.661 32.5638 28.661 33.342C28.661 34.1202 28.0253 34.7536 27.2464 34.7536H26.3316C26.1185 34.7536 25.9421 34.9284 25.9421 35.1445C25.9421 35.3606 26.1185 35.5351 26.3316 35.5351C27.1105 35.5351 27.7461 36.1681 27.7461 36.9466C27.7461 37.7251 27.1105 38.3582 26.3316 38.3582H17.929C16.3418 38.3582 14.6995 38.3571 13.8839 36.8669V26.057C13.8839 25.8428 13.8509 25.6363 13.792 25.4408C14.3688 24.5176 14.9604 24.0043 15.585 23.4638C15.8128 23.2654 16.0516 23.0601 16.2867 22.8315C17.297 21.867 18.4727 19.541 18.5315 17.8715C18.572 16.8351 18.8989 16.1918 19.4574 16.0602C19.7624 15.9882 20.0599 16.054 20.3503 16.2549C20.8867 16.6293 21.3165 17.4269 21.4157 18.24C21.5223 19.1026 21.3606 19.6835 21.1879 20.2986C20.927 21.2326 20.6588 22.1951 21.4855 23.937C21.1144 23.9094 20.8242 23.7059 20.6001 23.3165C20.4935 23.1298 20.2547 23.0655 20.0674 23.1735C19.88 23.2815 19.8175 23.5203 19.9241 23.7069C20.3062 24.3708 20.8756 24.7213 21.5738 24.7213H22.1212C22.1249 24.7217 22.1285 24.7217 22.1359 24.7213H29.0762C29.8551 24.7213 30.487 25.3547 30.487 26.1329C30.487 26.911 29.8551 27.5444 29.0762 27.5444V27.5447ZM38.434 10.9693C38.3311 10.6478 38.0482 10.4384 37.7065 10.4409L33.7312 10.4486L32.5077 6.66404C32.4049 6.34255 32.1183 6.13498 31.7803 6.13498C31.4422 6.13498 31.1593 6.34255 31.0527 6.66404L29.833 10.4486L25.8577 10.4409H25.854C25.516 10.4409 25.2331 10.6481 25.1265 10.9693C25.0236 11.2908 25.1338 11.6265 25.4057 11.8242L28.6279 14.1558L27.3935 17.9356C27.2869 18.256 27.3971 18.5914 27.669 18.7902C27.8087 18.8897 27.963 18.9394 28.121 18.9394C28.2752 18.9394 28.4332 18.8897 28.5692 18.7905L31.7803 16.4469L34.9951 18.7905C35.267 18.9893 35.6197 18.9889 35.8952 18.7901C36.167 18.5914 36.2773 18.2559 36.1707 17.9355L34.9362 14.1557L38.1584 11.8241C38.4302 11.6265 38.5405 11.2907 38.4339 10.9692L38.434 10.9693ZM34.466 13.5301C34.1978 13.7255 34.0839 14.0701 34.1905 14.3869L35.414 18.1281L32.2322 15.8083C32.1017 15.7126 31.944 15.6609 31.7822 15.6609C31.6203 15.6609 31.4626 15.7126 31.3321 15.8083L28.1504 18.1281L29.3738 14.3869C29.4804 14.0698 29.3665 13.7255 29.0983 13.5301L25.9092 11.2224L29.8442 11.2301C30.1785 11.2301 30.4688 11.0174 30.5717 10.7008L31.7804 6.95466L32.9928 10.7004C33.092 11.0178 33.386 11.2269 33.7203 11.2301L37.6552 11.2224L34.4662 13.5301H34.466ZM13.5386 10.9693C13.4357 10.6482 13.1492 10.4409 12.8111 10.4409L8.8358 10.4486L7.61228 6.66404C7.50939 6.34255 7.22283 6.13498 6.88478 6.13498C6.54674 6.13498 6.26017 6.34255 6.15728 6.66404L4.93752 10.4486L0.958534 10.4409C0.620488 10.4409 0.333925 10.6481 0.231035 10.9693C0.128144 11.2908 0.234706 11.6265 0.510253 11.8242L3.73236 14.1558L2.49424 17.9356C2.39135 18.256 2.49791 18.5914 2.77346 18.7902C2.90939 18.8897 3.06736 18.9394 3.22166 18.9394C3.37963 18.9394 3.53393 18.8897 3.66986 18.7905L6.88463 16.4469L10.0994 18.7905C10.3713 18.9893 10.724 18.9889 10.9959 18.7901C11.2714 18.5914 11.378 18.2559 11.2751 17.9355L10.0369 14.1557L13.2591 11.8241C13.5346 11.6265 13.6449 11.2907 13.5383 10.9692L13.5386 10.9693ZM9.57064 13.5301C9.43958 13.6251 9.34196 13.7592 9.2918 13.9131C9.24164 14.067 9.24151 14.2329 9.29142 14.3869L10.5149 18.1281L7.33689 15.8083C7.20096 15.7103 7.04291 15.661 6.88494 15.661C6.72697 15.661 6.569 15.7102 6.43674 15.8083L3.25494 18.1281L4.47846 14.3869C4.58135 14.0698 4.47111 13.7255 4.19924 13.5301L1.01018 11.2224L4.9451 11.2301H4.94877C5.28307 11.2301 5.57338 11.0174 5.67627 10.7008L6.88502 6.95466L8.09377 10.7004C8.14343 10.8543 8.24061 10.9884 8.37132 11.0836C8.50204 11.1788 8.65957 11.2301 8.82127 11.2301H8.82494L12.7599 11.2224L9.5708 13.5301H9.57064ZM25.9863 5.69404C25.8835 5.37294 25.5969 5.16568 25.2625 5.16568H25.2588L21.2835 5.17341L20.0601 1.3888C19.9572 1.06732 19.6706 0.859741 19.3326 0.859741C18.9945 0.859741 18.7117 1.06732 18.6051 1.3888L17.3853 5.17341L13.4063 5.16568C13.0683 5.16568 12.7854 5.37287 12.6788 5.69404C12.576 6.01552 12.6862 6.35099 12.9581 6.54896L16.1802 8.88052L14.942 12.6608C14.8392 12.9808 14.9494 13.3162 15.2213 13.515C15.3609 13.6145 15.5152 13.6641 15.6731 13.6641C15.8274 13.6641 15.9855 13.6145 16.1213 13.5153L19.3325 11.1712L22.5473 13.5153C22.8192 13.7136 23.1719 13.7136 23.4438 13.5149C23.7193 13.3161 23.8295 12.9807 23.723 12.6603L22.4849 8.88044L25.7107 6.54888C25.9825 6.35083 26.0928 6.01544 25.9863 5.69396L25.9863 5.69404ZM22.0184 8.25482C21.7465 8.45029 21.6363 8.79459 21.7392 9.11162L22.9626 12.8529L19.7845 10.5331C19.6486 10.4347 19.4906 10.3854 19.3327 10.3854C19.1747 10.3854 19.0167 10.4347 18.8845 10.5328L15.7028 12.8529L16.9262 9.1113C17.029 8.79459 16.9188 8.45029 16.647 8.2549L13.4579 5.94724L17.3965 5.95498C17.7308 5.95498 18.0211 5.74224 18.124 5.4256L19.3328 1.67912L20.5415 5.4256C20.5913 5.57939 20.6885 5.71347 20.8192 5.80857C20.9499 5.90368 21.1074 5.95493 21.269 5.95498H21.2727L25.2076 5.94724L22.0185 8.2549L22.0184 8.25482Z" fill="#1F1F1F"/>
</g>
</svg>
