<svg width="39" height="40" viewBox="0 0 39 40" fill="none" xmlns="http://www.w3.org/2000/svg">
<g id="Group">
<path id="Vector" fill-rule="evenodd" clip-rule="evenodd" d="M14.3346 19.3235C14.3596 19.0406 14.5815 18.8227 14.8651 18.7961L15.637 18.7242C15.8323 18.7063 15.9987 18.5852 16.0737 18.4039C16.1471 18.2258 16.1128 18.0211 15.9885 17.8742L15.4854 17.2797C15.2995 17.0602 15.2995 16.7461 15.4807 16.5305C15.7209 16.2305 15.9922 15.9569 16.2901 15.7141C16.5104 15.5336 16.8253 15.536 17.0401 15.7211L17.6338 16.2133C17.9573 16.4813 18.4487 16.2766 18.4838 15.8578L18.5495 15.0875C18.5682 14.8078 18.7846 14.5813 19.0682 14.5492C19.451 14.5063 19.8424 14.5047 20.2253 14.5446C20.5018 14.5735 20.7135 14.7821 20.7487 15.0571L20.8206 15.8477C20.862 16.2649 21.3495 16.4672 21.6721 16.1961L22.2674 15.6953C22.4838 15.5133 22.7901 15.5086 23.0112 15.6852C23.3135 15.9266 23.5909 16.2008 23.8338 16.5016C24.0128 16.7227 24.0112 17.0336 23.8276 17.2485L23.3338 17.8438C23.0651 18.1688 23.2674 18.6563 23.6893 18.6922L24.4651 18.7578C24.7432 18.7813 24.9612 18.993 24.9979 19.2688C25.0417 19.6453 25.044 20.0617 25.0026 20.4383C24.9682 20.718 24.7549 20.9328 24.4729 20.9594L23.6971 21.0313C23.2792 21.0703 23.0792 21.5602 23.351 21.8828L23.851 22.4774C24.0284 22.6883 24.037 22.9875 23.8721 23.2086C23.6417 23.5078 23.3417 23.8047 23.0487 24.043C22.9428 24.1296 22.81 24.1766 22.6732 24.1757C22.5364 24.1749 22.4042 24.1263 22.2995 24.0383L21.7042 23.5422C21.3823 23.2742 20.8909 23.4813 20.8549 23.8977L20.7893 24.668C20.7713 24.9477 20.5542 25.1742 20.2706 25.2063C19.8862 25.2492 19.494 25.2508 19.1096 25.211C18.8253 25.1813 18.6057 24.9555 18.5877 24.6766L18.5151 23.9078C18.4753 23.4844 17.9823 23.2891 17.6643 23.5578L17.0729 24.0586C16.8573 24.2414 16.5495 24.2461 16.3276 24.0696C16.0495 23.8477 15.7057 23.525 15.4924 23.2414C15.3245 23.0188 15.3331 22.7133 15.512 22.5055L16.0049 21.9102C16.2713 21.5891 16.0659 21.0969 15.6495 21.0617L14.8737 20.9961C14.5948 20.9727 14.3753 20.7594 14.3409 20.4821C14.2948 20.1133 14.2956 19.693 14.3354 19.3227L14.3346 19.3235ZM29.0729 23.2289C28.2893 22.3446 27.8049 21.1789 27.8049 19.8774C27.8049 17.0492 30.1127 14.8071 32.8768 14.8071C35.6409 14.8071 37.9487 17.0821 37.9487 19.8774C37.9487 21.1914 37.4448 22.3938 36.619 23.2969C35.8854 21.8969 34.4268 20.9758 32.837 20.9485C31.2752 20.9485 29.8112 21.8656 29.0729 23.2289ZM25.3979 31.2602C27.8409 30.0291 29.8238 28.0457 31.0542 25.6024C28.6323 24.8281 26.8721 22.5547 26.8721 19.8774C26.8721 17.2 28.6323 14.9274 31.0542 14.1531C29.8372 11.7328 27.8805 9.76331 25.4682 8.53049C24.7221 10.9977 22.4253 12.7985 19.7206 12.7985C17.0159 12.7985 14.6893 10.9758 13.9542 8.48596C11.5026 9.71643 9.51431 11.7016 8.28384 14.1531C10.7057 14.9274 12.4659 17.2008 12.4659 19.8774C12.4659 22.5539 10.7057 24.8281 8.28384 25.6024C9.52994 28.0774 11.5401 30.075 14.0245 31.3032C14.8221 28.9227 17.0745 27.2032 19.7206 27.2032C22.3667 27.2032 24.5901 28.9024 25.3987 31.2602H25.3979ZM14.6479 33.211C14.6479 30.4891 16.8401 28.1407 19.7198 28.1407C22.5995 28.1407 24.7917 30.3735 24.7917 33.211C24.7917 34.5289 24.2948 35.7086 23.4924 36.5969C22.7534 35.2156 21.3057 34.3086 19.7284 34.2813C18.1534 34.2813 16.6799 35.2141 15.9471 36.5946C15.1385 35.693 14.6487 34.5032 14.6487 33.2102L14.6479 33.211ZM2.65181 23.2297C1.86822 22.3453 1.38384 21.1797 1.38384 19.8781C1.38384 17.0828 3.65884 14.8078 6.45572 14.8078C9.25259 14.8078 11.5276 17.0828 11.5276 19.8781C11.5276 21.1688 11.0307 22.3813 10.1979 23.2969C9.46431 21.8977 8.0065 20.9758 6.41666 20.9492C4.85494 20.9492 3.39088 21.8664 2.65259 23.2297H2.65181ZM15.9456 10.1742C15.0276 9.14846 14.5229 7.75471 14.6737 6.27346C14.9385 3.66721 17.151 1.72034 19.719 1.72034C22.4823 1.72034 24.7909 3.96252 24.7909 6.79065C24.7909 8.11096 24.2932 9.28831 23.4909 10.1766C22.7518 8.79534 21.3042 7.88831 19.7268 7.86174C18.1526 7.86174 16.6792 8.79377 15.9456 10.175V10.1742ZM32.876 13.8703C32.5745 13.8703 32.2807 13.893 31.9901 13.936C30.6557 11.1703 28.4292 8.9344 25.6729 7.58518C25.7057 7.32502 25.7284 7.06018 25.7284 6.79143C25.7284 3.47815 23.0307 0.782837 19.7198 0.782837C16.4088 0.782837 13.7112 3.47815 13.7112 6.79143C13.7112 7.04456 13.7299 7.29377 13.7588 7.53909C10.9549 8.88362 8.69478 11.136 7.34556 13.936C7.05494 13.893 6.75728 13.8703 6.4565 13.8703C3.14556 13.8703 0.447906 16.5656 0.447906 19.8781C0.447906 23.1906 3.14556 25.8867 6.4565 25.8867C6.75806 25.8867 7.05572 25.8641 7.34556 25.8211C8.70181 28.6336 10.9729 30.8914 13.7917 32.2336C13.7401 32.5524 13.7104 32.8789 13.7104 33.2117C13.7104 36.525 16.4042 39.2203 19.719 39.2203C23.0338 39.2203 25.7276 36.525 25.7276 33.2117C25.7276 32.8633 25.6948 32.5219 25.6354 32.1891C28.4135 30.8414 30.6479 28.6 31.9893 25.8211C32.2799 25.8641 32.5737 25.8867 32.8753 25.8867C36.1901 25.8867 38.8838 23.1922 38.8838 19.8781C38.8838 16.5641 36.1901 13.8703 32.8753 13.8703H32.876ZM19.719 33.093C18.6135 33.093 17.7167 32.1953 17.7167 31.0906C17.7167 29.986 18.6135 29.0891 19.719 29.0891C20.8245 29.0891 21.7213 29.9867 21.7213 31.0906C21.7213 32.1946 20.8221 33.093 19.719 33.093ZM19.719 6.6719C20.8229 6.6719 21.7213 5.77268 21.7213 4.66956C21.7213 3.56643 20.8221 2.66799 19.719 2.66799C18.6159 2.66799 17.7167 3.56409 17.7167 4.66956C17.7167 5.77502 18.6135 6.6719 19.719 6.6719ZM32.8284 19.7594C33.9323 19.7594 34.8307 18.8602 34.8307 17.7571C34.8307 16.6539 33.9315 15.7555 32.8284 15.7555C31.7253 15.7555 30.826 16.6516 30.826 17.7571C30.826 18.8625 31.7229 19.7594 32.8284 19.7594ZM6.40806 19.7594C5.30259 19.7594 4.40572 18.8617 4.40572 17.7571C4.40572 16.6524 5.30259 15.7555 6.40806 15.7555C7.51353 15.7555 8.41041 16.6531 8.41041 17.7571C8.41041 18.861 7.51119 19.7594 6.40806 19.7594ZM17.2674 19.8774C17.2674 21.2 18.3448 22.2774 19.6674 22.2774C20.9901 22.2774 22.0674 21.2 22.0674 19.8774C22.0674 18.5547 20.9901 17.4766 19.6674 17.4766C18.3448 17.4766 17.2674 18.5539 17.2674 19.8774Z" fill="#1F1F1F"/>
</g>
</svg>
