<svg width="40" height="40" viewBox="0 0 40 40" fill="none" xmlns="http://www.w3.org/2000/svg">
<g id="Group">
<path id="Vector" fill-rule="evenodd" clip-rule="evenodd" d="M21.4678 9.94136C21.566 10.013 21.6845 10.0516 21.806 10.0516C21.9276 10.0516 22.046 10.013 22.1442 9.94136C22.2427 9.8702 22.3161 9.76954 22.3536 9.65395C22.3911 9.53837 22.3908 9.41384 22.3529 9.29839L21.7882 7.57113L23.26 6.50621C23.3586 6.43509 23.432 6.33448 23.4697 6.2189C23.5073 6.10332 23.5072 5.97876 23.4694 5.86324C23.4323 5.7476 23.3595 5.64675 23.2614 5.57525C23.1632 5.50375 23.0449 5.46532 22.9235 5.4655H22.922L21.1052 5.46863L20.5471 3.73972C20.4703 3.50238 20.2506 3.34214 20 3.34214C19.7495 3.34214 19.5297 3.5023 19.453 3.73972L18.8949 5.46863L17.0781 5.4655H17.077C16.9555 5.46531 16.837 5.50373 16.7388 5.57521C16.6405 5.6467 16.5675 5.74756 16.5303 5.86324C16.4925 5.97881 16.4925 6.10339 16.5303 6.21896C16.568 6.33454 16.6415 6.43513 16.7401 6.50621L18.2119 7.57113L17.6472 9.29839C17.5693 9.53589 17.6535 9.79378 17.8563 9.94136C17.9573 10.0148 18.076 10.0516 18.1943 10.0516C18.3127 10.0516 18.4313 10.0149 18.5324 9.94136L20.0001 8.87027L21.4679 9.94136H21.4678ZM31.265 25.8797C29.6642 25.8797 28.3618 27.1828 28.3618 28.7836C28.3618 30.3843 29.6642 31.6868 31.265 31.6868C32.8658 31.6868 34.1679 30.3843 34.1679 28.7836C34.1679 27.1828 32.8658 25.8797 31.265 25.8797ZM31.6556 23.3985V20.9289C31.6556 20.7132 31.4803 20.5383 31.265 20.5383H26.0986C26.0181 19.6586 25.2756 18.9672 24.3751 18.9672H23.8868V18.5852C23.8868 17.9828 23.4298 17.4853 22.8441 17.4211C22.3293 16.7821 21.9542 15.8258 21.7268 14.572C22.4716 14.0852 23.2012 13.2976 23.8703 12.2516C27.408 10.943 30.1881 8.19308 30.9718 5.21175C31.111 4.68207 31.0001 4.1298 30.6673 3.69855C30.3344 3.2666 29.8288 3.01886 29.2803 3.01886H26.6508C26.6735 2.70402 26.6923 2.38847 26.7022 2.07027C26.7132 1.74621 26.6001 1.45082 26.3734 1.21714C26.1478 0.982769 25.8564 0.859253 25.5313 0.859253H14.4688C14.1436 0.859253 13.8523 0.98269 13.6263 1.21714C13.4003 1.45082 13.2864 1.74621 13.2974 2.07027C13.3081 2.38847 13.3268 2.70402 13.3496 3.01886H10.7197C10.1712 3.01886 9.66564 3.2666 9.33275 3.69855C8.99986 4.1298 8.88892 4.68207 9.02814 5.21175C9.81181 8.19308 12.592 10.943 16.1301 12.2516C16.7988 13.2977 17.5285 14.0852 18.2728 14.572C18.0458 15.8257 17.6706 16.782 17.1559 17.4211C16.5706 17.4853 16.1131 17.9828 16.1131 18.5852V18.9672H15.6249C14.724 18.9672 13.9822 19.6587 13.9013 20.5383H8.73541C8.63182 20.5383 8.53248 20.5795 8.45924 20.6528C8.38601 20.726 8.34486 20.8254 8.34486 20.9289V23.3985C4.18291 23.6032 0.859314 27.0532 0.859314 31.2648C0.859314 35.6078 4.39267 39.1407 8.73541 39.1407C13.0781 39.1407 16.6111 35.6078 16.6111 31.2648C16.6111 27.0532 13.2879 23.6032 9.12595 23.3985V21.3196H13.897C13.9298 21.9368 14.4408 22.429 15.0658 22.429H24.9343C25.5592 22.429 26.0703 21.9368 26.1031 21.3196H30.8742V23.3985C26.7126 23.6032 23.389 27.0532 23.389 31.2648C23.389 35.6078 26.922 39.1407 31.2651 39.1407C35.6082 39.1407 39.1408 35.6078 39.1408 31.2648C39.1408 27.0532 35.8171 23.6032 31.6556 23.3985ZM15.8299 31.2648C15.8299 33.0718 15.1503 34.7234 14.0337 35.9773C13.6387 35.0569 13.0045 34.2359 12.2051 33.6219C11.2003 32.8499 10.0025 32.432 8.74119 32.4125H8.72939C7.46806 32.432 6.27002 32.8499 5.26509 33.6219C4.46603 34.2359 3.83189 35.0569 3.4365 35.9773C2.31994 34.7234 1.64064 33.0718 1.64064 31.2648C1.64064 27.3531 4.82306 24.1703 8.73525 24.1703C12.6474 24.1703 15.8299 27.3531 15.8299 31.2648H15.8299ZM28.4492 5.36261C27.9131 6.62902 26.8804 7.82261 25.5063 8.77347C25.8748 7.69777 26.1639 6.55082 26.3671 5.36261H28.4492ZM11.5508 5.36261H13.6325C13.836 6.55082 14.1249 7.69777 14.4937 8.77347C13.1196 7.82269 12.0872 6.62902 11.5508 5.36261ZM16.2323 10.8695C14.9519 8.42261 14.1869 5.28839 14.0781 2.04449C14.0745 1.92988 14.1083 1.84207 14.188 1.75941C14.2677 1.67746 14.354 1.64074 14.4687 1.64074H25.5313C25.6463 1.64074 25.7319 1.67746 25.8116 1.76011C25.8913 1.84207 25.9259 1.92988 25.9218 2.04449C25.8131 5.28832 25.0485 8.42261 23.7681 10.8695C22.6225 13.0578 21.2142 14.3642 19.9999 14.3642C18.7856 14.3642 17.3775 13.0578 16.2323 10.8695ZM23.1057 18.9672H16.8947V18.5852C16.8947 18.3703 17.0695 18.1946 17.2853 18.1946H22.7151C22.8186 18.1948 22.9178 18.236 22.991 18.3092C23.0642 18.3824 23.1054 18.4817 23.1056 18.5852L23.1057 18.9672ZM36.5634 35.9774C36.1681 35.057 35.5343 34.236 34.7345 33.622C33.7296 32.85 32.5319 32.4321 31.2703 32.4125H31.2585C29.9975 32.4321 28.8001 32.85 27.7945 33.622C26.9954 34.236 26.3617 35.057 25.9663 35.9774C24.8502 34.7235 24.1705 33.0719 24.1705 31.2649C24.1705 27.3532 27.3533 24.1703 31.2651 24.1703C35.1769 24.1703 38.3593 27.3532 38.3593 31.2649C38.3593 33.0719 37.6796 34.7235 36.5635 35.9774H36.5634ZM5.83213 28.7836C5.83213 30.3843 7.13455 31.6868 8.73541 31.6868C10.3363 31.6868 11.6386 30.3843 11.6386 28.7836C11.6386 27.1828 10.3362 25.8797 8.73541 25.8797C7.13463 25.8797 5.83213 27.1828 5.83213 28.7836Z" fill="#1F1F1F"/>
</g>
</svg>
