<svg width="30" height="10" viewBox="0 0 30 10" fill="none" xmlns="http://www.w3.org/2000/svg">
<g id="Paytm_Logo_(standalone) 1" clip-path="url(#clip0_201_1439)">
<g id="layer1">
<g id="g52">
<path id="path54" d="M29.8881 2.95366C29.6159 2.12729 28.8742 1.53388 28.0031 1.53388H27.9848C27.4185 1.53388 26.9082 1.78419 26.5449 2.18603C26.1809 1.78419 25.6706 1.53388 25.1049 1.53388H25.0867C24.5889 1.53388 24.1338 1.72745 23.7843 2.04786V1.88498C23.7724 1.72278 23.6467 1.59529 23.4914 1.59529H22.1552C21.9917 1.59529 21.8597 1.73546 21.8597 1.90968V9.61606C21.8597 9.79028 21.9917 9.93046 22.1552 9.93046H23.4914C23.6404 9.93046 23.763 9.81231 23.7824 9.65945L23.7818 4.12714C23.7818 4.10779 23.7824 4.08976 23.7843 4.07174C23.8057 3.82476 23.976 3.62184 24.245 3.59647H24.2947H24.4349H24.4914C24.6039 3.60715 24.6988 3.64921 24.7736 3.71262C24.8899 3.81074 24.9547 3.9616 24.9547 4.12714L24.9597 9.63208C24.9597 9.8063 25.0923 9.94714 25.2551 9.94714H26.5914C26.7491 9.94714 26.8774 9.81364 26.8849 9.64743L26.8843 4.1198C26.8837 3.93824 26.9628 3.77403 27.1018 3.67658C27.1703 3.62985 27.2526 3.59848 27.3475 3.58913H27.3972H27.5373H27.5939C27.883 3.61583 28.0578 3.84879 28.0571 4.1198L28.0622 9.61739C28.0622 9.79161 28.1948 9.93179 28.3576 9.93179H29.6938C29.8566 9.93179 29.9893 9.79161 29.9893 9.61739V3.70461C29.9893 3.30144 29.9465 3.12989 29.8881 2.95366Z" fill="#54C1F0"/>
</g>
<g id="g56">
<path id="path58" d="M20.8457 1.61532H20.0814V0.300324C20.0814 0.298989 20.0814 0.297655 20.0814 0.29632C20.0814 0.138121 19.9607 0.00995922 19.8118 0.00995922C19.7942 0.00995922 19.7772 0.0126295 19.7609 0.0159664C18.9136 0.262944 19.0833 1.50918 17.5365 1.61532H17.5019H17.3863C17.3636 1.61532 17.3423 1.61865 17.3215 1.62333C17.1895 1.6547 17.0902 1.77952 17.0902 1.92904V3.34817C17.0902 3.52105 17.2228 3.66189 17.3863 3.66189H18.1927L18.1914 9.67948C18.1914 9.85103 18.3221 9.98987 18.4837 9.98987H19.8049C19.9658 9.98987 20.0965 9.85103 20.0965 9.67948L20.0971 3.66189H20.8457C21.0085 3.66189 21.1411 3.52105 21.1411 3.34817V1.92904C21.1411 1.75616 21.0085 1.61532 20.8457 1.61532Z" fill="#54C1F0"/>
</g>
<g id="g60">
<path id="path62" d="M16.0367 1.61531H14.7004C14.5376 1.61531 14.4057 1.75615 14.4057 1.92904V4.8634C14.4025 5.04496 14.2642 5.19048 14.0926 5.19048H13.5332C13.3598 5.19048 13.2196 5.04229 13.2196 4.85806L13.2146 1.92904C13.2146 1.75615 13.082 1.61531 12.9192 1.61531H11.5829C11.4195 1.61531 11.2875 1.75615 11.2875 1.92904V5.14509C11.2875 6.36663 12.1077 7.23773 13.2586 7.23773C13.2586 7.23773 14.1222 7.23773 14.1486 7.24307C14.3045 7.26176 14.4258 7.4006 14.4258 7.57148C14.4258 7.74036 14.307 7.87853 14.153 7.89923C14.1454 7.90056 14.1385 7.90256 14.1304 7.9039L12.1762 7.91124C12.0128 7.91124 11.8808 8.05209 11.8808 8.22497V9.64343C11.8808 9.81698 12.0128 9.95715 12.1762 9.95715H14.361C15.5125 9.95715 16.3321 9.08672 16.3321 7.86452V1.92904C16.3321 1.75615 16.2001 1.61531 16.0367 1.61531Z" fill="#233266"/>
</g>
<g id="g64">
<path id="path66" d="M3.10317 4.21569V4.87785V5.09146C3.10317 5.27502 2.96301 5.42454 2.79016 5.42454L1.94226 5.42521V3.67033H2.79016C2.96301 3.67033 3.10317 3.81852 3.10317 4.00275V4.21569ZM3.22071 1.61508H0.299888C0.139611 1.61508 0.0101318 1.75325 0.0101318 1.9228V3.31321C0.0101318 3.31588 0.0107603 3.31855 0.0107603 3.32122C0.0107603 3.3279 0.0101318 3.33458 0.0101318 3.34058V7.8002V9.63385C0.0101318 9.80473 0.130811 9.94424 0.280403 9.94824H0.305545H1.64182C1.80461 9.94824 1.93723 9.80807 1.93723 9.63451L1.94226 7.4778H3.22071C4.29048 7.4778 5.03593 6.68947 5.03593 5.5487V3.54684C5.03593 2.40607 4.29048 1.61508 3.22071 1.61508Z" fill="#233266"/>
</g>
<g id="g68">
<path id="path70" d="M8.64961 7.54723V7.76884C8.64961 7.78686 8.6471 7.80422 8.64459 7.8209C8.64144 7.83692 8.63704 7.85228 8.63202 7.86696C8.59053 7.99112 8.47362 8.08123 8.33472 8.08123H7.77846C7.60498 8.08123 7.46356 7.94105 7.46356 7.76884V7.50117C7.46356 7.49783 7.46293 7.49449 7.46293 7.49115L7.46356 6.77892V6.77759V6.69882V6.55598L7.46419 6.55397C7.46482 6.38242 7.60498 6.24358 7.77846 6.24358H8.33472C8.50882 6.24358 8.64961 6.38309 8.64961 6.55598V7.54723ZM8.43717 1.62309H6.58298C6.41893 1.62309 6.28631 1.75526 6.28631 1.91747V2.46949C6.28631 2.47283 6.28694 2.47684 6.28694 2.48017C6.28694 2.48418 6.28631 2.48818 6.28631 2.49219V3.24848C6.28631 3.42002 6.4271 3.5602 6.60058 3.5602H8.36614C8.50568 3.58356 8.6163 3.6917 8.63202 3.86058V4.04348C8.6163 4.20435 8.50694 4.32183 8.37369 4.33518H7.49939C6.33659 4.33518 5.50818 5.15555 5.50818 6.30766V7.91569V7.95774C5.50818 9.10319 6.22031 9.91821 7.37494 9.91821H9.79796C10.2329 9.91821 10.5855 9.56844 10.5855 9.1379V3.75311C10.5855 2.44747 9.95195 1.62309 8.43717 1.62309Z" fill="#233266"/>
</g>
</g>
</g>
<defs>
<clipPath id="clip0_201_1439">
<rect width="30" height="10" fill="white" transform="translate(0.000366211)"/>
</clipPath>
</defs>
</svg>
