<svg width="21" height="21" viewBox="0 0 21 21" fill="none" xmlns="http://www.w3.org/2000/svg">
<g id="PhonePe_Logo 1" clip-path="url(#clip0_201_1452)">
<path id="circle27" d="M18.1955 12.0446C19.2742 7.411 16.4453 2.76778 11.877 1.67365C7.30872 0.579516 2.7309 3.44879 1.65217 8.08236C0.573452 12.7159 3.40232 17.3591 7.97062 18.4533C12.5389 19.5474 17.1167 16.6781 18.1955 12.0446Z" fill="#5F259F"/>
<path id="path31" d="M13.7813 7.81356C13.7813 7.47645 13.4964 7.18749 13.164 7.18749H12.0245L9.413 4.15345C9.1756 3.86449 8.79575 3.76817 8.4159 3.86449L7.51376 4.15345C7.37131 4.2016 7.32383 4.39424 7.41879 4.49056L10.2677 7.23565H5.94688C5.80443 7.23565 5.70947 7.33197 5.70947 7.47645V7.95804C5.70947 8.29516 5.99436 8.58411 6.32673 8.58411H6.99146V10.8958C6.99146 12.6295 7.8936 13.6409 9.413 13.6409C9.88781 13.6409 10.2677 13.5927 10.7425 13.4001V14.9412C10.7425 15.3746 11.0748 15.7117 11.5022 15.7117H12.1669C12.3094 15.7117 12.4518 15.5672 12.4518 15.4228V8.53595H13.5439C13.6863 8.53595 13.7813 8.43963 13.7813 8.29516V7.81356ZM10.7425 11.9553C10.4576 12.0998 10.0777 12.1479 9.79285 12.1479C9.03315 12.1479 8.6533 11.7626 8.6533 10.8958V8.58411H10.7425V11.9553Z" fill="white"/>
</g>
<defs>
<clipPath id="clip0_201_1452">
<rect width="20.2" height="20.2" fill="white" transform="translate(0.00109863)"/>
</clipPath>
</defs>
</svg>
