<svg width="32" height="14" viewBox="0 0 32 14" fill="none" xmlns="http://www.w3.org/2000/svg">
<g id="Google_Pay_Logo 1" clip-path="url(#clip0_201_1456)">
<path id="Vector" d="M15.1198 7.23883V10.6562H13.9198V2.20471H17.0398C17.7998 2.20471 18.5198 2.46193 19.0798 2.93962C19.6398 3.38057 19.9198 4.04198 19.9198 4.74014C19.9198 5.43831 19.6398 6.06298 19.0798 6.54067C18.5198 7.01836 17.8398 7.27558 17.0398 7.27558L15.1198 7.23883ZM15.1198 3.23358V6.17322H17.1198C17.5598 6.17322 17.9998 6.02623 18.2798 5.73227C18.9198 5.18109 18.9198 4.26245 18.3198 3.71127L18.2798 3.67453C17.9598 3.38056 17.5598 3.19684 17.1198 3.23358H15.1198Z" fill="#5F6368"/>
<path id="Vector_2" d="M22.6772 4.70337C23.5572 4.70337 24.2372 4.92384 24.7572 5.36479C25.2772 5.80573 25.5172 6.39366 25.5172 7.12857V10.6561H24.3972V9.84773H24.3572C23.8772 10.5091 23.1972 10.8399 22.3972 10.8399C21.7172 10.8399 21.1172 10.6561 20.6372 10.2887C20.1972 9.92122 19.9172 9.40678 19.9172 8.8556C19.9172 8.26767 20.1572 7.78998 20.6372 7.42253C21.1172 7.05508 21.7972 6.90809 22.5972 6.90809C23.3172 6.90809 23.8772 7.01833 24.3172 7.27555V7.01833C24.3172 6.65088 24.1572 6.28342 23.8372 6.06295C23.5172 5.80573 23.1172 5.65875 22.6772 5.65875C21.9972 5.65875 21.4772 5.91597 21.1172 6.4304L20.0772 5.84248C20.7172 5.07082 21.5572 4.70337 22.6772 4.70337ZM21.1572 8.89235C21.1572 9.18631 21.3172 9.44353 21.5572 9.59051C21.8372 9.77424 22.1572 9.88447 22.4772 9.88447C22.9572 9.88447 23.4372 9.70075 23.7972 9.37004C24.1972 9.03933 24.3972 8.63513 24.3972 8.19418C24.0372 7.93696 23.5172 7.78998 22.8372 7.78998C22.3572 7.78998 21.9572 7.90022 21.6372 8.12069C21.3172 8.30442 21.1572 8.56164 21.1572 8.89235Z" fill="#5F6368"/>
<path id="Vector_3" d="M31.9995 4.88708L28.0395 13.2283H26.8395L28.3195 10.3254L25.7195 4.92383H26.9995L28.8795 9.07606H28.9195L30.7595 4.92383H31.9995V4.88708Z" fill="#5F6368"/>
<path id="Vector_4" d="M10.3595 6.50385C10.3595 6.17314 10.3195 5.84243 10.2795 5.51172H5.27954V7.38574H8.11954C7.99954 7.97366 7.63954 8.52484 7.07954 8.85555V10.0682H8.79954C9.79954 9.22301 10.3595 7.97366 10.3595 6.50385Z" fill="#4285F4"/>
<path id="Vector_5" d="M5.27933 11.244C6.71933 11.244 7.91933 10.8031 8.79932 10.0682L7.07933 8.85556C6.59933 9.14953 5.99933 9.33325 5.27933 9.33325C3.91933 9.33325 2.71933 8.48811 2.31933 7.31226H0.559326V8.5616C1.47933 10.2151 3.27933 11.244 5.27933 11.244Z" fill="#34A853"/>
<path id="Vector_6" d="M2.32036 7.31232C2.08036 6.7244 2.08036 6.06298 2.32036 5.43831V4.18896H0.560356C-0.199644 5.54855 -0.199644 7.16534 0.560356 8.56167L2.32036 7.31232Z" fill="#FBBC04"/>
<path id="Vector_7" d="M5.27997 3.454C6.03997 3.454 6.75997 3.71122 7.31997 4.18891L8.83997 2.79258C7.87997 1.98418 6.59998 1.50649 5.31997 1.54324C3.31998 1.54324 1.47998 2.57211 0.599976 4.22565L2.35998 5.475C2.71998 4.29914 3.91998 3.454 5.27997 3.454Z" fill="#EA4335"/>
</g>
<defs>
<clipPath id="clip0_201_1456">
<rect width="32" height="14" fill="white"/>
</clipPath>
</defs>
</svg>
