<svg width="33" height="32" viewBox="0 0 33 32" fill="none" xmlns="http://www.w3.org/2000/svg">
<g id="phone">
<path id="Icon" d="M11.4237 11.8045C12.3517 13.7373 13.6167 15.5488 15.2189 17.1509C16.821 18.753 18.6325 20.0181 20.5653 20.9461C20.7316 21.0259 20.8147 21.0658 20.9199 21.0965C21.2937 21.2054 21.7527 21.1272 22.0693 20.9005C22.1583 20.8367 22.2346 20.7605 22.387 20.6081C22.8531 20.1419 23.0862 19.9089 23.3206 19.7565C24.2044 19.1818 25.3438 19.1818 26.2277 19.7565C26.4621 19.9089 26.6951 20.1419 27.1613 20.6081L27.4211 20.8679C28.1297 21.5765 28.484 21.9308 28.6765 22.3113C29.0592 23.068 29.0592 23.9617 28.6765 24.7185C28.484 25.099 28.1297 25.4533 27.4211 26.1619L27.2109 26.372C26.5048 27.0782 26.1517 27.4313 25.6716 27.701C25.139 28.0002 24.3116 28.2153 23.7007 28.2135C23.1501 28.2119 22.7738 28.1051 22.0212 27.8915C17.9767 26.7435 14.1602 24.5775 10.9762 21.3936C7.79224 18.2096 5.62627 14.3931 4.47831 10.3486C4.2647 9.59598 4.1579 9.21969 4.15626 8.66909C4.15444 8.05813 4.36959 7.23081 4.66882 6.69813C4.93848 6.21809 5.29157 5.86501 5.99773 5.15884L6.20791 4.94866C6.9165 4.24007 7.27079 3.88578 7.6513 3.69332C8.40805 3.31056 9.30174 3.31056 10.0585 3.69332C10.439 3.88578 10.7933 4.24007 11.5019 4.94866L11.7617 5.20849C12.2278 5.67463 12.4609 5.9077 12.6133 6.14207C13.188 7.02593 13.188 8.16537 12.6133 9.04922C12.4609 9.28359 12.2278 9.51666 11.7617 9.9828C11.6093 10.1352 11.5331 10.2114 11.4693 10.3005C11.2426 10.6171 11.1643 11.0761 11.2733 11.4499C11.304 11.5551 11.3439 11.6382 11.4237 11.8045Z" stroke="#C2C2C2" stroke-width="2" stroke-linecap="round" stroke-linejoin="round"/>
</g>
</svg>
